<?xml version="1.0" encoding="UTF-8"?>
<!DOCTYPE svg PUBLIC "-//W3C//DTD SVG 1.1//EN" "http://www.w3.org/Graphics/SVG/1.1/DTD/svg11.dtd">
<!-- Creator: CorelDRAW -->
<svg xmlns="http://www.w3.org/2000/svg" xml:space="preserve" width="2048px" height="2048px" style="shape-rendering:geometricPrecision; text-rendering:geometricPrecision; image-rendering:optimizeQuality; fill-rule:evenodd; clip-rule:evenodd"
viewBox="0 0 2048 2048"
 xmlns:xlink="http://www.w3.org/1999/xlink">
 <defs>
  <style type="text/css">
   <![CDATA[
    .fil1 {fill:none}
    .fil0 {fill:#424242;fill-rule:nonzero}
   ]]>
  </style>
 </defs>
 <g id="Layer_x0020_1">
  <metadata id="CorelCorpID_0Corel-Layer"/>
  <g id="_291355704">
   <path id="_291356520" class="fil0" d="M711.435 1106.84c-74.7839,37.8768 -126.199,94.5024 -158.117,170.393 -18.2138,33.6425 -65.5406,307.077 -77.9327,366.44l646.601 0 68.2382 -87.3733c-2.84646,-3.61536 -5.42953,-7.48111 -7.72087,-11.5689 -6.41693,-11.4461 -10.291,-24.2847 -11.2819,-37.3689 -1.05591,-13.9654 1.23071,-28.1091 6.83977,-40.9559 11.2524,-25.7681 33.665,-42.6579 60.9662,-48.1347 23.876,-4.79055 47.6918,-9.84568 71.3079,-15.7665l116.648 -149.361c-34.7835,-62.113 -38.7874,-95.7272 -138.645,-146.303 -32.7071,-16.565 -69.717,-29.3788 -111.36,-38.4945 -74.6847,74.0693 -279.497,74.0693 -354.182,0 -41.6433,9.11576 -78.652,21.9295 -111.362,38.4945z"/>
   <path id="_291356376" class="fil0" d="M986.239 255.213c104.733,0 199.558,42.678 268.198,111.673 68.6375,68.9965 111.095,164.315 111.095,269.596 0,105.28 -42.4571,200.599 -111.095,269.595 -68.6375,68.9953 -163.462,111.673 -268.198,111.673 -104.736,0 -199.56,-42.678 -268.2,-111.673 -68.6375,-68.9965 -111.095,-164.315 -111.095,-269.595 0,-105.281 42.4571,-200.6 111.095,-269.596 68.6398,-68.9953 163.465,-111.673 268.2,-111.673zm290.895 473.846c-56.3693,-18.6555 -107.603,-48.8103 -150.884,-87.9225 -30.0213,-27.1299 -56.1922,-58.5851 -77.5784,-93.515 -24.2551,35.0327 -157.51,147.405 -171.448,121.323 -0.147638,-0.197244 10.5614,-73.565 9.80552,-87.8753 -13.2602,18.3815 -27.9449,35.6516 -43.9028,51.6556 -41.1048,41.2229 -90.6993,73.9808 -146.114,95.589 -0.679134,0.263386 -1.35945,0.504331 -2.04095,0.72756 14.941,47.5512 41.0847,90.1016 75.319,124.514 55.2626,55.5485 131.614,89.9091 215.948,89.9091 84.3343,0 160.686,-34.3607 215.946,-89.9091 34.2036,-34.3843 60.3331,-76.8886 75.2788,-124.389 -0.108662,-0.0366142 -0.219685,-0.0708662 -0.329528,-0.10748z"/>
   <path id="_291355848" class="fil0" d="M584.771 511.557c0.598819,0.359055 1.20945,0.7063 1.83307,1.03819l47.426 25.0677c18.0154,9.53387 40.3134,2.58425 49.7977,-15.5244 9.48544,-18.1099 2.57126,-40.5237 -15.4441,-50.0575l-46.187 -24.4134c-18.4477,-41.4839 -44.9953,-75.5068 -74.8016,-98.1119 -37.7067,-28.5981 -81.0178,-39.7406 -122.016,-26.9351 -41.0611,12.8268 -70.5071,46.7492 -85.4776,91.8804 -11.4343,34.467 -1.54252,158.694 18.0697,166.752 14.0634,5.13307 52.3205,-40.3323 76.3784,-62.7154 12.1925,-11.3457 26.8583,-20.1095 43.5426,-25.3181 16.663,-5.20512 33.7819,-6.32363 50.4296,-3.89174 16.7079,2.4378 32.967,8.4815 47.8618,17.5878 2.63858,1.94291 5.52993,3.50433 8.5878,4.64174z"/>
   <path id="_291355248" class="fil0" d="M1387.7 511.557c-0.598819,0.359055 -1.20945,0.7063 -1.83307,1.03819l-47.4248 25.0677c-18.0154,9.53387 -40.3134,2.58425 -49.7989,-15.5244 -9.48544,-18.1099 -2.57126,-40.5237 15.4441,-50.0575l46.187 -24.4134c18.4477,-41.4839 44.9953,-75.5068 74.8016,-98.1119 37.7079,-28.5981 81.0178,-39.7406 122.016,-26.9351 41.0611,12.8268 70.5071,46.7492 85.4788,91.8804 11.4343,34.467 -8.08111,164.708 -18.0709,166.752 -29.4579,-10.5047 -52.3205,-40.3323 -76.3784,-62.7154 -12.1925,-11.3457 -26.8583,-20.1095 -43.5426,-25.3181 -16.6618,-5.20512 -33.7807,-6.32363 -50.4296,-3.89174 -16.7079,2.4378 -32.9658,8.4815 -47.8618,17.5878 -2.6374,1.94291 -5.52874,3.50433 -8.5878,4.64174z"/>
   <path id="_291355632" class="fil0" d="M1295.34 1538.48c5.4189,-6.9378 4.18819,-16.9559 -2.74961,-22.3748 -6.9378,-5.4189 -16.9559,-4.18819 -22.3748,2.74961l-138.783 177.703 -0.0472441 -0.0354331c-1.90158,2.43543 -2.98583,5.24882 -3.29528,8.11064l-13.8839 68.7201 -0.0637796 -0.0129921c-1.74921,8.66103 3.85276,17.1024 12.5138,18.8516 3.70394,0.747638 7.36536,0.15 10.4835,-1.45394l64.1658 -30.5362 0.00354331 0.00826772c2.77205,-1.31929 4.99016,-3.33189 6.54567,-5.73308l97.8331 -125.271c5.4189,-6.9378 4.18819,-16.9559 -2.74961,-22.3748l-7.59804 -68.3504zm134.007 -93.5115c6.9378,5.4189 16.9559,4.18819 22.3748,-2.74961l149.203 -191.046 0.0472441 0.0354331c5.4378,-6.96378 4.20237,-17.0197 -2.76142,-22.4575 -0.362599,-0.282284 -0.733465,-0.54567 -1.11142,-0.79252l-49.363 -38.5524 0.0354331 -0.0472441c-6.96378,-5.4378 -17.0197,-4.20237 -22.4575,2.76142 -0.282284,0.362599 -0.54567,0.733465 -0.79252,1.11142l-194.346 248.848c-5.4189,6.9378 -4.18819,16.9559 2.74961,22.3748l96.4217 -19.4858z"/>
   <path id="_291355776" class="fil0" d="M1334.83 1437.48c1.42441,-0.377953 3.27047,-0.869292 12.5433,-3.30236 14.048,-3.68622 23.7709,-11.3894 31.8166,-17.765 23.4095,-18.5492 38.1721,-30.2433 76.076,9.58465 19.2567,20.2311 30.7524,44.7437 35.3362,69.9567 4.03937,22.2284 2.6752,44.9823 -3.50079,65.7827 -6.27874,21.1441 -17.5181,40.3961 -33.117,55.2437 -14.7945,14.0811 -33.4595,24.1736 -55.4989,28.1788 -15.1276,2.74961 -7.06418,1.32284 -10.3441,1.90512 -16.8154,2.99292 -35.7343,6.3626 -55.0855,11.0209 -21.2729,5.12008 -37.839,-3.40985 -47.5725,-17.0894 -3.59174,-5.04804 -6.18189,-10.8673 -7.65001,-16.9713 -1.46693,-6.09449 -1.81063,-12.424 -0.916536,-18.5032 0.667323,-4.53898 1.96772,-8.96812 3.93898,-13.1138 -3.62599,-2.79213 -6.78898,-6.13701 -9.44292,-9.86694 -3.59174,-5.04804 -6.18189,-10.8673 -7.65001,-16.9713 -1.42441,-5.92205 -1.79173,-12.0662 -0.990946,-17.9882 -4.84134,0.571654 -8.58072,0.892914 -10.0665,0.770079 -16.1941,-1.35 -28.3736,-10.8012 -35.3138,-23.1815 -3.57992,-6.38504 -5.73898,-13.5886 -6.28583,-20.8288 -0.561024,-7.40788 0.576378,-14.9811 3.61063,-21.9284 5.2252,-11.9646 15.6709,-21.6118 32.1756,-24.9236 51.665,-10.3677 64.428,-13.761 87.9379,-20.0091z"/>
  </g>
 </g>
 <rect class="fil1" width="2048" height="2048"/>
</svg>
