<svg version="1.1" id="Layer_1" xmlns="http://www.w3.org/2000/svg" xmlns:xlink="http://www.w3.org/1999/xlink" x="0px" y="0px"
	 width="100%" viewBox="0 0 432 539" enable-background="new 0 0 432 539" xml:space="preserve">
<path fill="#D9FFF0" opacity="1.000000" stroke="none" 
	d="
M241.000000,540.000000 
	C160.666687,540.000000 80.833374,540.000000 1.000043,540.000000 
	C1.000029,360.333405 1.000029,180.666794 1.000014,1.000139 
	C144.999908,1.000093 288.999817,1.000093 432.999817,1.000046 
	C432.999878,180.666519 432.999878,360.333038 432.999939,539.999756 
	C369.166656,540.000000 305.333344,540.000000 241.000000,540.000000 
M398.354736,408.647980 
	C398.354736,408.647980 398.553040,408.774384 398.564240,409.383728 
	C399.468018,410.362213 400.371826,411.340729 401.874146,412.821777 
	C402.838745,412.662506 403.803314,412.503235 405.423401,412.539307 
	C406.970215,411.382477 408.517059,410.225647 410.626221,408.869293 
	C411.048859,408.452881 411.471466,408.036469 412.539368,407.570526 
	C418.364746,403.119965 418.460815,402.748413 414.140381,397.075073 
	C406.923126,387.597809 399.601776,378.199463 392.435425,368.684143 
	C391.402466,367.312592 390.987671,365.475433 390.890228,363.447266 
	C391.538727,362.735687 392.187225,362.024109 393.334686,361.241669 
	C393.611633,360.864471 393.888550,360.487305 394.704742,359.753540 
	C396.527954,357.921112 398.351166,356.088684 400.693115,354.143860 
	C400.996307,353.715729 401.299500,353.287628 402.201172,352.544678 
	C403.505402,350.735992 404.809631,348.927307 406.712952,346.836395 
	C409.621460,343.099731 408.564575,341.002380 404.327362,339.051666 
	C387.714264,331.403412 371.248749,323.434814 354.722931,315.596802 
	C347.808655,312.317444 340.894104,309.037964 333.946625,305.830078 
	C332.682983,305.246613 330.687805,303.474060 330.742432,307.666931 
	C330.832306,308.114563 330.922150,308.562195 330.691071,309.343964 
	C330.896881,309.880371 331.102661,310.416809 331.372192,311.671021 
	C331.532593,312.120667 331.693024,312.570312 331.630981,313.558807 
	C331.827240,314.253143 332.023499,314.947510 332.324585,316.488037 
	C335.582245,332.648438 338.839935,348.808807 341.880829,365.453003 
	C342.069000,365.920715 342.257172,366.388397 342.338959,367.509460 
	C342.592072,368.349335 342.845154,369.189178 342.979767,370.524414 
	C343.063843,370.671906 343.147888,370.819427 343.187592,371.803070 
	C343.423065,372.598236 343.658539,373.393433 343.681915,374.798553 
	C344.050018,375.999969 344.418121,377.201385 344.716705,379.200043 
	C344.993469,380.495850 345.270203,381.791626 345.339600,383.757721 
	C345.894470,385.105316 346.449310,386.452881 347.237885,388.174896 
	C347.237885,388.174896 347.671326,388.258026 347.951172,388.792175 
	C349.426178,388.954620 351.215271,389.737183 352.323669,389.175842 
	C358.174591,386.212402 363.817535,382.841553 369.615875,379.769165 
	C371.267212,378.894165 373.197327,378.545166 375.459747,378.826752 
	C375.934021,379.275452 376.408264,379.724121 376.713776,380.332977 
	C376.713776,380.332977 377.070892,380.514862 377.303131,381.204102 
	C382.887848,388.502014 388.472565,395.799896 393.834351,403.072327 
	C393.834351,403.072327 394.034241,403.023041 394.458557,403.573517 
	C394.916046,404.094330 395.373566,404.615112 395.866516,405.675110 
	C396.136261,405.891174 396.406006,406.107239 396.874542,406.676422 
	C396.874542,406.676422 397.187134,406.934265 397.176239,407.457977 
	C397.542847,407.780762 397.909454,408.103546 398.354736,408.647980 
M210.393387,132.587738 
	C206.772522,127.261597 204.033966,126.393906 198.365479,128.969315 
	C198.365479,128.969315 198.029831,129.270508 197.478043,129.320602 
	C197.061554,129.886826 196.645081,130.453033 195.692291,131.209259 
	C195.411407,131.681122 195.130539,132.152985 194.391037,132.732086 
	C194.391037,132.732086 194.037369,133.036652 193.102112,132.910172 
	C141.454544,132.881409 89.806992,132.850220 38.159428,132.839539 
	C37.002964,132.839294 35.846451,133.072357 34.363384,132.636566 
	C29.291550,126.852257 26.539089,126.143814 20.467442,129.120682 
	C20.313028,129.411423 20.158615,129.702179 19.379892,130.258575 
	C16.053888,134.473480 15.715838,138.927032 18.450865,142.497925 
	C21.250355,146.153000 25.147207,146.877487 30.575533,144.592926 
	C31.718437,143.345123 32.861343,142.097305 34.619343,140.787338 
	C34.793888,140.677795 34.968433,140.568237 36.033989,140.686600 
	C70.571205,140.767517 105.108498,140.831757 139.645447,140.975464 
	C141.500641,140.983170 143.353058,141.658859 144.509277,142.342819 
	C124.258957,149.084976 105.469208,158.587585 88.748207,171.848724 
	C88.748207,171.848724 88.793732,171.778107 88.156906,172.284286 
	C87.769981,172.661591 87.383057,173.038895 86.357445,173.454712 
	C65.187210,189.978836 48.289597,210.050613 35.611797,234.298874 
	C35.491760,234.861572 35.371723,235.424255 34.738613,236.218597 
	C33.943222,236.520905 33.147831,236.823227 31.066391,237.373077 
	C30.681154,237.578430 30.295918,237.783783 29.724298,237.879028 
	C29.495073,238.066071 29.265850,238.253113 28.288685,238.989349 
	C27.863581,239.745010 27.438477,240.500671 26.629452,241.858902 
	C23.675512,244.458115 24.357836,247.287048 26.198206,250.101028 
	C28.556524,253.706924 31.609613,255.696014 36.786930,254.031860 
	C38.189342,253.022781 39.591755,252.013687 41.644737,250.776642 
	C45.158924,246.422791 42.870686,242.281982 41.890465,237.801865 
	C44.710777,233.221542 47.584831,228.673126 50.330574,224.048523 
	C51.892399,221.417969 53.244423,218.662857 54.990982,215.586975 
	C54.990982,215.586975 55.064358,215.110901 55.681366,214.842728 
	C57.766747,212.235443 59.852131,209.628143 62.189484,206.798584 
	C62.189484,206.798584 62.273460,206.473251 62.830002,206.174225 
	C63.290066,205.494843 63.750130,204.815460 64.736427,203.738174 
	C67.117928,201.034027 69.499428,198.329865 72.510559,195.494431 
	C73.039848,195.090591 73.629013,194.745361 74.089783,194.274475 
	C93.287872,174.655533 115.907791,160.317276 141.741043,151.232224 
	C151.281815,147.876938 161.227585,145.673218 171.755051,142.955978 
	C173.503677,142.588135 175.252319,142.220291 177.506393,141.931885 
	C177.668488,141.878876 177.830597,141.825867 178.827393,141.837738 
	C183.937317,141.503601 189.047256,141.169464 194.579102,141.351044 
	C196.449280,142.686935 198.319458,144.022812 200.573105,145.785065 
	C205.752075,147.195404 208.844223,144.071716 212.692551,140.812408 
	C225.509033,142.784714 238.325516,144.757004 251.673309,147.178268 
	C252.296707,147.406952 252.909943,147.669647 253.544952,147.859436 
	C289.452698,158.591049 319.467529,178.340195 342.865784,207.573822 
	C350.754181,217.429565 357.020386,228.583725 363.894501,239.668030 
	C363.906769,240.026962 363.919006,240.385910 363.311981,241.056320 
	C361.055450,244.951050 361.232147,248.816849 364.309631,252.027222 
	C366.772430,254.596375 369.930878,256.004944 374.340668,253.953079 
	C375.909119,252.310318 377.477600,250.667557 379.608307,248.686554 
	C381.347473,244.238098 379.672150,240.821869 376.390503,237.771332 
	C376.390503,237.771332 376.439453,237.906586 375.281677,237.724121 
	C374.897522,237.653076 374.513336,237.582047 374.345734,237.368378 
	C374.345734,237.368378 374.231262,237.090637 374.231262,237.090637 
	C374.231262,237.090637 374.064423,237.319519 373.042572,236.685196 
	C372.246796,236.543365 371.451050,236.401520 370.604523,235.720047 
	C365.271545,227.524155 359.938538,219.328247 354.698517,210.511200 
	C354.096069,210.079468 353.493652,209.647720 352.683044,208.560196 
	C350.688171,206.086823 348.693298,203.613449 346.726105,200.462433 
	C345.470123,199.332855 344.214111,198.203278 342.691711,196.495422 
	C341.486389,195.336563 340.281036,194.177704 339.461487,192.589447 
	C332.199677,185.739410 325.359100,178.362076 317.586090,172.151855 
	C302.585419,160.167114 285.852539,151.045013 267.762207,144.455597 
	C265.986938,143.808960 264.569397,142.180176 263.670837,141.007263 
	C264.116302,140.925766 264.561737,140.844269 265.928802,140.937927 
	C295.122711,140.957550 324.316589,140.987411 353.510498,140.987885 
	C359.130615,140.987976 364.750732,140.872879 370.905151,141.164215 
	C373.791901,144.561798 376.902649,147.399750 382.569580,145.590759 
	C387.163391,144.004944 389.124603,140.533401 388.790955,135.952103 
	C388.481689,131.705536 385.855988,128.815720 381.742950,127.923645 
	C377.782257,127.064598 374.092712,127.752274 371.694336,132.317200 
	C371.280518,132.677658 370.866730,133.038132 369.501526,133.083023 
	C368.343567,133.003189 367.185669,132.854080 366.027679,132.853500 
	C316.175751,132.828949 266.323822,132.811111 216.471893,132.833405 
	C214.844299,132.834122 213.216888,133.260239 210.921356,133.324356 
	C210.692444,133.295319 210.463531,133.266296 210.393387,132.587738 
M183.999817,259.028961 
	C183.999817,259.028961 183.965195,259.057800 184.029709,259.809784 
	C185.138504,260.408691 186.240936,261.513611 187.357071,261.527588 
	C197.601669,261.656342 207.852280,261.727905 218.090866,261.444824 
	C219.585800,261.403473 222.336136,259.328949 222.275848,258.329742 
	C221.934814,252.676682 220.914200,247.064621 220.521423,240.724701 
	C222.692017,236.834137 224.862610,232.943573 227.589340,228.734451 
	C228.060577,227.822098 228.531799,226.909744 229.063477,225.565536 
	C229.063477,225.565536 229.083130,225.129913 229.697510,224.965179 
	C230.115829,224.303528 230.534164,223.641891 231.008408,222.521851 
	C231.008408,222.521851 231.037003,222.060974 231.769348,221.848602 
	C232.025757,219.702118 233.098007,217.225113 232.387192,215.470444 
	C230.159836,209.972107 227.229858,204.760864 224.627197,199.411575 
	C217.759171,185.295746 210.920212,171.165756 203.655807,156.446014 
	C202.740799,156.979797 201.825790,157.513596 200.532089,158.610214 
	C198.729034,162.755157 196.925995,166.900085 194.478928,171.335526 
	C193.118195,173.956726 191.702087,176.550888 190.406433,179.203873 
	C185.239380,189.784134 180.109863,200.382721 174.405487,211.367340 
	C170.777054,215.843735 170.789261,220.147491 174.380539,224.813751 
	C177.191681,228.466324 179.686661,232.438171 181.767075,236.549057 
	C183.041565,239.067474 183.268433,242.116028 183.927399,245.464920 
	C183.909515,245.643753 183.891632,245.822586 183.337311,246.291916 
	C183.081024,249.602966 182.711105,252.911652 182.641937,256.226593 
	C182.622726,257.147461 183.494980,258.086975 183.999817,259.028961 
M68.804497,339.382599 
	C68.777229,340.010101 68.749962,340.637634 68.436722,342.115387 
	C66.266960,359.710419 76.203186,371.793823 93.551125,372.503296 
	C97.089989,371.904602 100.791718,371.777740 104.138474,370.622559 
	C116.209160,366.456024 128.334534,362.355316 140.083664,357.388611 
	C146.029343,354.875275 152.412659,351.592041 156.494354,346.847168 
	C165.213989,336.710815 164.987854,318.411865 151.025726,307.987640 
	C142.548004,301.658081 131.996704,301.259369 123.314415,307.170013 
	C122.513832,307.499268 121.713249,307.828522 120.484558,307.664246 
	C120.009644,307.580383 119.460892,307.297180 119.070549,307.441711 
	C108.246330,311.450287 97.329651,315.242065 86.684174,319.683136 
	C82.774101,321.314362 79.511803,324.498260 75.394547,327.346436 
	C73.613548,330.578339 71.832542,333.810272 69.672340,337.442383 
	C69.582497,337.979462 69.492653,338.516571 68.804497,339.382599 
z"/>
<path fill="#D2C3C4" opacity="1.000000" stroke="none" 
	d="
M174.966446,210.974533 
	C180.109863,200.382721 185.239380,189.784134 190.406433,179.203873 
	C191.702087,176.550888 193.118195,173.956726 195.052094,171.435760 
	C196.417938,175.492004 197.775986,179.432114 197.887650,183.407242 
	C198.133011,192.143188 197.748215,200.896866 197.547516,209.953873 
	C197.372894,211.128571 197.271408,211.992691 196.790222,212.936676 
	C193.269485,214.387161 193.216995,217.041138 194.992538,219.002121 
	C195.985596,220.098877 198.733719,220.171692 200.515930,219.819595 
	C202.096054,219.507416 203.434158,217.970276 205.273209,216.938721 
	C212.054276,216.987198 218.487579,216.661011 224.803162,217.375549 
	C227.029312,217.627396 228.967392,220.425461 231.037003,222.060974 
	C231.037003,222.060974 231.008408,222.521851 230.662125,222.809692 
	C229.904938,223.774994 229.494049,224.452454 229.083130,225.129913 
	C229.083130,225.129913 229.063477,225.565536 228.690216,225.843292 
	C227.889023,227.098358 227.461105,228.075684 227.033203,229.053009 
	C224.862610,232.943573 222.692017,236.834137 220.063660,241.083481 
	C218.198700,241.850128 216.788071,242.618835 215.384903,242.605484 
	C207.948471,242.534775 200.514801,242.194168 193.078278,242.104034 
	C190.046082,242.067291 187.846344,241.504883 186.348801,238.324112 
	C184.545609,234.494156 181.792252,231.124344 179.701126,227.413925 
	C177.083221,222.768814 172.737411,218.533768 175.490921,212.333862 
	C175.630203,212.020248 175.155350,211.433899 174.966446,210.974533 
z"/>
<path fill="#B4B695" opacity="1.000000" stroke="none" 
	d="
M70.051537,337.042175 
	C71.832542,333.810272 73.613548,330.578339 76.099396,327.170410 
	C82.284554,325.496033 87.766953,324.005188 93.238495,322.475525 
	C93.488853,322.405518 93.593071,321.915741 93.847435,321.740997 
	C96.159233,320.152985 98.338020,318.272736 100.843307,317.084167 
	C107.456245,313.946747 114.213104,311.112640 120.912674,308.157776 
	C121.713249,307.828522 122.513832,307.499268 124.063232,307.080322 
	C129.537704,306.662628 134.264618,306.057251 138.988708,306.078491 
	C144.604141,306.103729 150.067612,309.929779 150.699310,313.806641 
	C144.241455,308.733154 137.014923,307.148376 129.785095,309.420441 
	C118.165451,313.072113 106.869682,317.754395 95.236938,322.075531 
	C95.925430,323.145660 96.507469,324.050293 96.674789,324.969849 
	C94.709129,325.164703 93.158180,325.344727 91.607231,325.524719 
	C91.586761,325.964569 91.566284,326.404419 91.545815,326.844269 
	C99.596100,326.312805 105.339424,329.842194 109.369987,336.396973 
	C110.297470,337.905304 111.249786,339.398346 112.178070,340.934723 
	C112.165466,340.971008 112.089569,340.959198 112.063438,341.383636 
	C112.275948,344.174103 112.514595,346.540161 112.767532,349.276489 
	C110.177460,354.077759 107.573074,358.508698 104.612076,363.006317 
	C96.857430,367.235199 89.273758,369.016174 81.042313,364.585693 
	C73.668640,357.560028 68.956467,349.937347 71.707047,339.480469 
	C71.871300,338.856049 70.635735,337.863464 70.051537,337.042175 
z"/>
<path fill="#49C075" opacity="1.000000" stroke="none" 
	d="
M86.996124,173.416199 
	C87.383057,173.038895 87.769981,172.661591 88.451981,172.042572 
	C88.747047,171.800842 88.684509,171.879761 88.684509,171.879761 
	C105.469208,158.587585 124.258957,149.084976 145.228439,142.081039 
	C148.964600,141.183807 151.981613,140.548340 154.998627,139.912872 
	C154.947174,139.311691 154.895737,138.710510 154.844284,138.109329 
	C114.897659,138.109329 74.951035,138.109329 34.925140,137.702515 
	C34.793903,135.929337 34.741932,134.562958 34.689960,133.196579 
	C35.846451,133.072357 37.002964,132.839294 38.159428,132.839539 
	C89.806992,132.850220 141.454544,132.881409 193.629547,133.377960 
	C194.021698,135.190216 193.886414,136.534714 193.303009,137.890778 
	C185.536011,138.933350 178.217102,139.964340 170.486053,140.997498 
	C157.854233,144.433029 145.208542,146.812180 133.511505,151.538879 
	C114.423714,159.252167 97.015602,170.226776 81.640518,184.065460 
	C77.927223,187.407700 75.110138,191.745651 71.880920,195.625717 
	C69.499428,198.329865 67.117928,201.034027 64.107178,203.957092 
	C63.076439,204.941742 62.674950,205.707504 62.273460,206.473251 
	C62.273460,206.473251 62.189484,206.798584 61.724297,206.943726 
	C59.194191,209.762878 57.129276,212.436890 55.064362,215.110901 
	C55.064358,215.110901 54.990982,215.586975 54.521950,215.843597 
	C51.707916,219.087204 49.362923,222.074158 47.005676,224.655121 
	C47.323071,222.668015 47.236351,220.818802 48.052666,219.551071 
	C52.123096,213.229675 55.991730,206.697327 60.767704,200.932037 
	C66.562355,193.937042 73.179054,187.621185 79.469902,181.039993 
	C81.937050,178.458969 84.484985,175.955170 86.996124,173.416199 
z"/>
<path fill="#CF4926" opacity="1.000000" stroke="none" 
	d="
M374.999573,377.954926 
	C373.197327,378.545166 371.267212,378.894165 369.615875,379.769165 
	C363.817535,382.841553 358.174591,386.212402 352.323669,389.175842 
	C351.215271,389.737183 349.426178,388.954620 348.069489,388.323914 
	C349.443298,385.186615 350.161835,382.019196 352.073700,379.959320 
	C355.362335,376.416016 356.724945,372.954498 354.894623,368.322937 
	C348.965668,353.319824 343.002747,338.328003 337.312469,323.233948 
	C335.462830,318.327606 334.411285,313.120331 333.331024,308.071259 
	C335.108002,309.377899 336.548584,310.664001 338.122406,312.267639 
	C344.359802,319.754059 350.400208,326.978455 356.585388,334.076721 
	C363.315704,341.800629 370.180450,349.407379 376.942871,357.405457 
	C373.034576,361.449127 369.229950,365.218048 365.284088,368.832825 
	C362.679565,371.218811 359.871979,373.383148 357.155304,375.646698 
	C357.446106,376.163330 357.736938,376.679962 358.027771,377.196594 
	C359.623291,376.363342 361.246887,375.579071 362.807404,374.684723 
	C364.871246,373.501862 366.885681,372.232758 368.997406,371.341614 
	C371.048828,373.773346 373.024200,375.864136 374.999573,377.954926 
z"/>
<path fill="#D3CCD5" opacity="1.000000" stroke="none" 
	d="
M231.403168,221.954788 
	C228.967392,220.425461 227.029312,217.627396 224.803162,217.375549 
	C218.487579,216.661011 212.054276,216.987198 205.288391,216.552795 
	C204.855850,215.689148 204.802231,215.176315 204.936905,214.378540 
	C208.576981,210.398697 205.673508,207.745804 203.712860,204.494888 
	C203.889435,188.371979 203.979553,172.706696 204.069687,157.041412 
	C210.920212,171.165756 217.759171,185.295746 224.627197,199.411575 
	C227.229858,204.760864 230.159836,209.972107 232.387192,215.470444 
	C233.098007,217.225113 232.025757,219.702118 231.403168,221.954788 
z"/>
<path fill="#51A053" opacity="1.000000" stroke="none" 
	d="
M364.027954,239.144470 
	C357.020386,228.583725 350.754181,217.429565 342.865784,207.573822 
	C319.467529,178.340195 289.452698,158.591049 253.544952,147.859436 
	C252.909943,147.669647 252.296707,147.406952 251.578949,146.758453 
	C251.981522,145.873718 252.478470,145.408798 253.386993,144.946411 
	C257.583008,145.889893 261.367462,146.830856 265.456757,147.798767 
	C266.169495,147.833267 266.577362,147.840790 267.160156,148.120026 
	C267.939423,148.540756 268.543823,148.689804 269.428955,148.888824 
	C270.086304,148.989502 270.462952,149.040176 270.947632,149.421509 
	C273.422577,150.766785 275.789459,151.781418 278.449371,152.848267 
	C279.136810,152.941940 279.531219,152.983398 280.015076,153.362167 
	C281.104065,154.100449 282.103607,154.501419 283.438660,154.982880 
	C285.814453,156.086624 287.854736,157.109863 289.978638,158.447403 
	C290.769684,159.144302 291.477051,159.526901 292.373535,159.927536 
	C292.562622,159.945587 292.935364,160.018967 292.980896,160.298859 
	C293.687042,160.769455 294.347626,160.960159 295.293945,161.160797 
	C296.031403,161.468277 296.483124,161.765839 297.006470,162.398132 
	C298.049194,163.161880 299.020325,163.590912 300.282654,164.155807 
	C302.016479,165.224503 303.459015,166.157349 304.978149,167.403870 
	C305.731293,168.138184 306.407867,168.558792 307.364502,169.028137 
	C308.070190,169.418793 308.495819,169.760727 308.985535,170.438980 
	C310.118439,171.461365 311.187195,172.147415 312.531097,172.998566 
	C314.529022,174.432602 316.251801,175.701553 318.039429,177.310898 
	C319.050537,178.127960 319.996857,178.604645 321.121826,179.298737 
	C321.859772,180.002991 322.418976,180.489822 323.024017,181.301270 
	C323.725647,182.093933 324.381470,182.561981 325.267548,183.263794 
	C327.648163,185.355606 329.798492,187.213638 332.051392,189.284698 
	C332.343231,189.762177 332.589783,189.952515 333.089050,190.329193 
	C334.508392,191.723053 335.732178,192.856445 337.006042,194.337967 
	C341.385925,200.272781 345.803955,205.794342 350.002350,211.478149 
	C351.692139,213.765793 352.314941,217.235413 354.435822,218.737961 
	C361.186096,223.520248 363.420380,230.713531 366.017212,238.109390 
	C366.013062,238.581329 366.013245,238.770126 365.680145,238.959534 
	C364.907196,239.021591 364.467590,239.083023 364.027954,239.144470 
z"/>
<path fill="#C33011" opacity="1.000000" stroke="none" 
	d="
M332.994690,308.050720 
	C334.411285,313.120331 335.462830,318.327606 337.312469,323.233948 
	C343.002747,338.328003 348.965668,353.319824 354.894623,368.322937 
	C356.724945,372.954498 355.362335,376.416016 352.073700,379.959320 
	C350.161835,382.019196 349.443298,385.186615 347.929565,388.056854 
	C347.671326,388.258026 347.237885,388.174896 347.141388,387.668945 
	C346.545593,385.804474 346.046265,384.445953 345.546936,383.087433 
	C345.270203,381.791626 344.993469,380.495850 344.832092,378.477905 
	C344.596344,376.566681 344.245178,375.377655 343.894012,374.188599 
	C343.658539,373.393433 343.423065,372.598236 343.342896,371.285461 
	C343.621796,370.400024 343.488464,370.153748 343.098267,370.029053 
	C342.845154,369.189178 342.592072,368.349335 342.540436,367.049805 
	C342.527161,366.049866 342.312378,365.509521 342.097626,364.969208 
	C338.839935,348.808807 335.582245,332.648438 332.338776,315.798828 
	C332.186462,314.413055 332.019958,313.716492 331.853455,313.019958 
	C331.693024,312.570312 331.532593,312.120667 331.526947,311.146118 
	C331.458496,310.084076 331.235260,309.546936 331.012024,309.009827 
	C330.922150,308.562195 330.832306,308.114563 331.080872,307.390564 
	C331.944458,307.426361 332.469574,307.738525 332.994690,308.050720 
z"/>
<path fill="#ACBE9C" opacity="1.000000" stroke="none" 
	d="
M151.025742,313.920258 
	C150.067612,309.929779 144.604141,306.103729 138.988708,306.078491 
	C134.264618,306.057251 129.537704,306.662628 124.371605,306.973724 
	C131.996704,301.259369 142.548004,301.658081 151.025726,307.987640 
	C164.987854,318.411865 165.213989,336.710815 156.494354,346.847168 
	C152.412659,351.592041 146.029343,354.875275 140.083664,357.388611 
	C128.334534,362.355316 116.209160,366.456024 104.138474,370.622559 
	C100.791718,371.777740 97.089989,371.904602 93.510666,371.995087 
	C94.686638,371.304871 95.927994,371.207001 97.095947,370.861237 
	C97.300026,370.800842 97.195312,369.697357 97.565704,369.015503 
	C100.285904,367.779694 102.673615,366.604034 105.433823,365.345886 
	C118.519989,360.288940 131.233658,355.314514 144.326843,350.344971 
	C146.202484,349.618805 147.698608,348.887787 149.447891,348.079712 
	C149.832535,347.885040 149.964005,347.767426 150.349030,347.594482 
	C151.057007,347.020233 151.511444,346.501251 151.977631,345.989502 
	C151.989349,345.996704 151.981674,345.965851 152.291367,345.825989 
	C157.640503,340.860138 160.065002,334.807892 158.150269,328.195892 
	C156.695160,323.171021 153.465714,318.659943 151.025742,313.920258 
z"/>
<path fill="#43B265" opacity="1.000000" stroke="none" 
	d="
M265.007202,140.762787 
	C264.561737,140.844269 264.116302,140.925766 262.927734,140.934082 
	C260.426361,141.234451 258.668091,141.608032 256.521240,141.922089 
	C252.437195,141.251511 248.757767,140.443878 245.037247,140.141205 
	C243.814911,140.041763 242.486130,141.250809 240.792709,141.890259 
	C232.489578,140.942352 224.590775,140.029861 216.718903,138.925369 
	C215.419174,138.743011 214.237457,137.719681 213.295013,136.787354 
	C214.725937,136.330780 215.862991,136.033493 217.000198,136.032959 
	C252.925323,136.016251 288.850494,136.005020 324.775513,136.075180 
	C328.067719,136.081619 331.361237,136.915039 334.650024,136.886597 
	C346.588440,136.783356 358.525085,136.476608 370.443146,136.350769 
	C370.423889,136.454910 370.270264,136.607635 370.208374,136.962219 
	C370.142334,137.556702 370.138184,137.796631 370.155334,138.078552 
	C370.176636,138.120560 370.176178,138.214752 369.714478,138.156982 
	C362.308716,138.396408 355.365540,138.921265 348.420319,138.950256 
	C322.318390,139.059235 296.215637,138.973862 270.113770,139.089371 
	C268.409119,139.096909 266.709290,140.179993 265.007202,140.762787 
z"/>
<path fill="#55CC8A" opacity="1.000000" stroke="none" 
	d="
M370.462402,136.246643 
	C358.525085,136.476608 346.588440,136.783356 334.650024,136.886597 
	C331.361237,136.915039 328.067719,136.081619 324.775513,136.075180 
	C288.850494,136.005020 252.925323,136.016251 217.000198,136.032959 
	C215.862991,136.033493 214.725937,136.330780 212.892731,136.721817 
	C211.930206,136.901398 211.663788,136.848862 211.458435,136.475067 
	C211.542801,135.265244 211.566101,134.376648 211.589401,133.488052 
	C213.216888,133.260239 214.844299,132.834122 216.471893,132.833405 
	C266.323822,132.811111 316.175751,132.828949 366.027679,132.853500 
	C367.185669,132.854080 368.343567,133.003189 369.992981,133.593201 
	C370.477081,134.817795 370.469727,135.532227 370.462402,136.246643 
z"/>
<path fill="#C33011" opacity="1.000000" stroke="none" 
	d="
M375.229675,378.390839 
	C373.024200,375.864136 371.048828,373.773346 369.171814,371.046265 
	C372.011536,368.367310 374.694733,366.239624 377.513306,364.309692 
	C379.648376,362.847748 381.558044,362.673920 381.995544,366.438568 
	C383.468018,371.263458 384.161377,376.161133 386.582611,379.956482 
	C391.597473,387.817322 397.685486,394.985443 402.991333,402.673676 
	C404.560699,404.947723 404.989502,408.008881 405.737549,410.876160 
	C405.278717,411.476624 405.023315,411.910278 404.767914,412.343933 
	C403.803314,412.503235 402.838745,412.662506 401.570923,412.270935 
	C400.362793,410.738220 399.457916,409.756287 398.553040,408.774353 
	C398.553040,408.774384 398.354736,408.647980 398.316956,408.277100 
	C397.915161,407.582214 397.551147,407.258240 397.187134,406.934265 
	C397.187134,406.934265 396.874542,406.676422 396.782349,406.219910 
	C396.403809,405.554230 396.117432,405.345062 395.831085,405.135895 
	C395.373566,404.615112 394.916046,404.094330 394.243042,403.322998 
	C394.027527,403.072479 394.057312,403.097809 394.057312,403.097809 
	C388.472565,395.799896 382.887848,388.502014 377.183411,380.790039 
	C377.063660,380.376007 376.882538,380.172821 376.882538,380.172821 
	C376.408264,379.724121 375.934021,379.275452 375.229675,378.390839 
z"/>
<path fill="#D47859" opacity="1.000000" stroke="none" 
	d="
M333.331055,308.071259 
	C332.469574,307.738525 331.944458,307.426361 331.105286,307.048218 
	C330.687805,303.474060 332.682983,305.246613 333.946625,305.830078 
	C340.894104,309.037964 347.808655,312.317444 354.722931,315.596802 
	C371.248749,323.434814 387.714264,331.403412 404.327362,339.051666 
	C408.564575,341.002380 409.621460,343.099731 406.381439,346.614471 
	C406.275177,345.112854 406.500458,343.833160 406.719879,342.586578 
	C402.363708,343.479645 398.691620,344.232483 394.970947,344.623352 
	C391.568329,342.109558 388.196045,339.985596 384.864716,337.799286 
	C380.111847,334.680023 375.466797,331.389221 370.633820,328.401123 
	C364.388428,324.539734 358.139984,320.640594 351.629639,317.265533 
	C347.322021,315.032349 342.552124,313.690796 337.989197,311.950104 
	C336.548584,310.664001 335.108002,309.377899 333.331055,308.071259 
z"/>
<path fill="#D1393A" opacity="1.000000" stroke="none" 
	d="
M395.019531,344.985352 
	C398.691620,344.232483 402.363708,343.479645 406.719879,342.586578 
	C406.500458,343.833160 406.275177,345.112854 406.081909,346.755585 
	C404.809631,348.927307 403.505402,350.735992 401.629822,352.752655 
	C400.763763,353.392517 400.469086,353.824371 400.174408,354.256226 
	C398.351166,356.088684 396.527954,357.921112 394.192444,359.967102 
	C393.398682,360.557983 393.117218,360.935272 392.835754,361.312531 
	C392.187225,362.024109 391.538727,362.735687 390.277893,363.803650 
	C389.463531,365.791046 389.261505,367.422058 388.780304,369.030457 
	C388.314941,369.003571 388.128784,368.999359 387.612732,368.933594 
	C385.521484,367.918823 383.760132,366.965515 381.998779,366.012207 
	C381.558044,362.673920 379.648376,362.847748 377.513306,364.309692 
	C374.694733,366.239624 372.011536,368.367310 369.095764,370.705353 
	C366.885681,372.232758 364.871246,373.501862 362.807404,374.684723 
	C361.246887,375.579071 359.623291,376.363342 358.027771,377.196594 
	C357.736938,376.679962 357.446106,376.163330 357.155304,375.646698 
	C359.871979,373.383148 362.679565,371.218811 365.284088,368.832825 
	C369.229950,365.218048 373.034576,361.449127 377.295654,357.345764 
	C380.388275,355.465851 383.241394,354.208954 385.741547,352.450226 
	C388.981384,350.171204 391.939911,347.492157 395.019531,344.985352 
z"/>
<path fill="#35A045" opacity="1.000000" stroke="none" 
	d="
M35.004410,138.109329 
	C74.951035,138.109329 114.897659,138.109329 154.844284,138.109329 
	C154.895737,138.710510 154.947174,139.311691 154.998627,139.912872 
	C151.981613,140.548340 148.964600,141.183807 145.577179,141.921432 
	C143.353058,141.658859 141.500641,140.983170 139.645447,140.975464 
	C105.108498,140.831757 70.571205,140.767517 35.566418,140.362167 
	C35.098846,140.037735 34.931988,139.647690 34.896584,139.389771 
	C34.908924,138.791016 34.956665,138.450180 35.004410,138.109329 
z"/>
<path fill="#B4B695" opacity="1.000000" stroke="none" 
	d="
M174.685974,211.170929 
	C175.155350,211.433899 175.630203,212.020248 175.490921,212.333862 
	C172.737411,218.533768 177.083221,222.768814 179.701126,227.413925 
	C181.792252,231.124344 184.545609,234.494156 186.348801,238.324112 
	C187.846344,241.504883 190.046082,242.067291 193.078278,242.104034 
	C200.514801,242.194168 207.948471,242.534775 215.384903,242.605484 
	C216.788071,242.618835 218.198700,241.850128 219.865448,241.440430 
	C220.914200,247.064621 221.934814,252.676682 222.275848,258.329742 
	C222.336136,259.328949 219.585800,261.403473 218.090866,261.444824 
	C207.852280,261.727905 197.601669,261.656342 187.357071,261.527588 
	C186.240936,261.513611 185.138504,260.408691 184.353790,259.544983 
	C185.667709,259.352875 186.657562,259.425537 188.029053,259.697601 
	C196.625244,259.943359 204.839798,259.989716 213.465881,260.086945 
	C218.681808,260.599579 220.551559,258.251984 220.164398,253.650040 
	C220.053833,252.335831 220.050186,250.996964 220.159683,249.682907 
	C220.458618,246.095749 218.927536,244.418747 215.279297,244.647491 
	C213.965790,244.729858 212.636414,244.559311 210.919235,244.330109 
	C203.679428,244.125931 196.834656,244.095825 189.723602,244.063629 
	C189.164825,244.249756 188.872330,244.437973 188.513397,244.573776 
	C188.446945,244.521362 188.278030,244.510391 187.845490,244.431854 
	C186.263885,244.544373 185.114838,244.735443 183.965775,244.926514 
	C183.268433,242.116028 183.041565,239.067474 181.767075,236.549057 
	C179.686661,232.438171 177.191681,228.466324 174.380539,224.813751 
	C170.789261,220.147491 170.777054,215.843735 174.685974,211.170929 
z"/>
<path fill="#7CD8A9" opacity="1.000000" stroke="none" 
	d="
M256.909851,141.981613 
	C258.668091,141.608032 260.426361,141.234451 262.585205,140.934082 
	C264.569397,142.180176 265.986938,143.808960 267.762207,144.455597 
	C285.852539,151.045013 302.585419,160.167114 317.586090,172.151855 
	C325.359100,178.362076 332.199677,185.739410 339.009766,192.745468 
	C338.024017,193.264267 337.489990,193.627060 336.955994,193.989838 
	C335.732178,192.856445 334.508392,191.723053 333.004730,190.102493 
	C332.538605,189.330811 332.279938,189.149582 331.948853,189.071671 
	C329.798492,187.213638 327.648163,185.355606 325.213867,182.941223 
	C324.279388,181.915451 323.628784,181.446060 322.978210,180.976654 
	C322.418976,180.489822 321.859772,180.002991 321.005707,178.991089 
	C319.798798,177.967514 318.886719,177.469009 317.974609,176.970520 
	C316.251801,175.701553 314.529022,174.432602 312.419128,172.680847 
	C310.995209,171.499588 309.958313,170.801117 308.921448,170.102661 
	C308.495819,169.760727 308.070190,169.418793 307.291870,168.707550 
	C306.259979,167.922211 305.580780,167.506195 304.901581,167.090179 
	C303.459015,166.157349 302.016479,165.224503 300.144470,163.860687 
	C298.788269,162.974258 297.861572,162.518814 296.934845,162.063385 
	C296.483124,161.765839 296.031403,161.468277 295.131134,160.886856 
	C294.100189,160.408310 293.517761,160.213638 292.935364,160.018967 
	C292.935364,160.018967 292.562622,159.945587 292.274963,159.616119 
	C291.289856,158.902130 290.592438,158.517609 289.895020,158.133087 
	C287.854736,157.109863 285.814453,156.086624 283.342346,154.650635 
	C281.915527,153.833527 280.920593,153.429184 279.925629,153.024841 
	C279.531219,152.983398 279.136810,152.941940 278.338257,152.525452 
	C275.569244,151.130554 273.204407,150.110703 270.839569,149.090851 
	C270.462952,149.040176 270.086304,148.989502 269.359955,148.621109 
	C268.335236,148.151703 267.660248,148.000015 266.985260,147.848312 
	C266.577362,147.840790 266.169495,147.833267 265.363159,147.488693 
	C262.279755,145.428299 259.594788,143.704956 256.909851,141.981613 
z"/>
<path fill="#5EAD74" opacity="1.000000" stroke="none" 
	d="
M72.195740,195.560074 
	C75.110138,191.745651 77.927223,187.407700 81.640518,184.065460 
	C97.015602,170.226776 114.423714,159.252167 133.511505,151.538879 
	C145.208542,146.812180 157.854233,144.433029 170.511688,141.321884 
	C170.962540,142.077499 170.975586,142.510880 170.988632,142.944275 
	C161.227585,145.673218 151.281815,147.876938 141.741043,151.232224 
	C115.907791,160.317276 93.287872,174.655533 74.089783,194.274475 
	C73.629013,194.745361 73.039848,195.090591 72.195740,195.560074 
z"/>
<path fill="#D47859" opacity="1.000000" stroke="none" 
	d="
M389.059509,369.053101 
	C389.261505,367.422058 389.463531,365.791046 389.976135,364.006897 
	C390.987671,365.475433 391.402466,367.312592 392.435425,368.684143 
	C399.601776,378.199463 406.923126,387.597809 414.140381,397.075073 
	C418.460815,402.748413 418.364746,403.119965 412.219116,407.251770 
	C411.267334,405.287445 410.635803,403.641907 410.015381,401.612854 
	C407.371460,397.519897 404.651642,393.854675 402.078857,390.088989 
	C399.313782,386.041748 396.796082,381.821564 393.935242,377.846069 
	C393.036896,376.597778 391.378082,375.896759 390.060364,374.703430 
	C390.053345,374.461578 390.019073,373.978973 390.024841,373.611084 
	C389.706879,371.846527 389.383179,370.449799 389.059509,369.053101 
M413.219757,404.201263 
	C413.391815,404.144196 413.563904,404.087158 413.735992,404.030090 
	C413.563263,403.976135 413.390533,403.922150 413.219757,404.201263 
z"/>
<path fill="#5EAD74" opacity="1.000000" stroke="none" 
	d="
M86.676788,173.435455 
	C84.484985,175.955170 81.937050,178.458969 79.469902,181.039993 
	C73.179054,187.621185 66.562355,193.937042 60.767704,200.932037 
	C55.991730,206.697327 52.123096,213.229675 48.052666,219.551071 
	C47.236351,220.818802 47.323071,222.668015 46.855293,224.968811 
	C44.285702,229.165070 41.854244,232.641647 39.100159,236.257782 
	C37.855347,236.300446 36.933167,236.203522 36.011040,235.835587 
	C36.032619,235.046844 36.054142,234.529114 36.075665,234.011383 
	C48.289597,210.050613 65.187210,189.978836 86.676788,173.435455 
z"/>
<path fill="#483ABF" opacity="1.000000" stroke="none" 
	d="
M372.203217,132.086700 
	C374.092712,127.752274 377.782257,127.064598 381.742950,127.923645 
	C385.855988,128.815720 388.481689,131.705536 388.790955,135.952103 
	C389.124603,140.533401 387.163391,144.004944 381.965027,145.400452 
	C378.308075,140.835663 375.255646,136.461182 372.203217,132.086700 
z"/>
<path fill="#CF4926" opacity="1.000000" stroke="none" 
	d="
M410.004242,401.996338 
	C410.635803,403.641907 411.267334,405.287445 411.896484,407.276520 
	C411.471466,408.036469 411.048859,408.452881 410.017578,408.945312 
	C408.252930,409.584015 407.096954,410.146667 405.940979,410.709320 
	C404.989502,408.008881 404.560699,404.947723 402.991333,402.673676 
	C397.685486,394.985443 391.597473,387.817322 386.582611,379.956482 
	C384.161377,376.161133 383.468018,371.263458 381.995544,366.438568 
	C383.760132,366.965515 385.521484,367.918823 387.631073,369.304047 
	C388.659210,371.150330 389.339142,372.564636 390.019073,373.978973 
	C390.019073,373.978973 390.053345,374.461578 390.032532,375.108826 
	C390.575348,377.579895 390.717316,379.708008 391.775726,381.174835 
	C396.342621,387.503662 401.103546,393.698364 405.984009,399.789551 
	C406.866913,400.891449 408.641388,401.278992 410.004242,401.996338 
z"/>
<path fill="#58A25E" opacity="1.000000" stroke="none" 
	d="
M265.468018,140.850357 
	C266.709290,140.179993 268.409119,139.096909 270.113770,139.089371 
	C296.215637,138.973862 322.318390,139.059235 348.420319,138.950256 
	C355.365540,138.921265 362.308716,138.396408 369.721069,138.479843 
	C370.249817,139.510620 370.310364,140.160767 370.370850,140.810913 
	C364.750732,140.872879 359.130615,140.987976 353.510498,140.987885 
	C324.316589,140.987411 295.122711,140.957550 265.468018,140.850357 
z"/>
<path fill="#55CC8A" opacity="1.000000" stroke="none" 
	d="
M337.006042,194.337952 
	C337.489990,193.627060 338.024017,193.264267 338.816864,192.960175 
	C340.281036,194.177704 341.486389,195.336563 342.851379,197.116821 
	C344.240173,198.872177 345.469299,200.006119 346.698425,201.140076 
	C348.693298,203.613449 350.688171,206.086823 352.833557,209.166656 
	C353.524567,210.226212 354.065063,210.679276 354.605560,211.132355 
	C359.938538,219.328247 365.271545,227.524155 370.428772,236.095917 
	C368.842529,236.923248 367.432037,237.374725 366.021545,237.826218 
	C363.420380,230.713531 361.186096,223.520248 354.435822,218.737961 
	C352.314941,217.235413 351.692139,213.765793 350.002350,211.478149 
	C345.803955,205.794342 341.385925,200.272781 337.006042,194.337952 
z"/>
<path fill="#958654" opacity="1.000000" stroke="none" 
	d="
M97.233215,369.075623 
	C97.195312,369.697357 97.300026,370.800842 97.095947,370.861237 
	C95.927994,371.207001 94.686638,371.304871 93.237930,371.740234 
	C76.203186,371.793823 66.266960,359.710419 68.786476,341.577698 
	C69.225090,340.377869 69.313950,339.715759 69.402809,339.053650 
	C69.492653,338.516571 69.582497,337.979462 69.861938,337.242279 
	C70.635735,337.863464 71.871300,338.856049 71.707047,339.480469 
	C68.956467,349.937347 73.668640,357.560028 81.055359,364.953125 
	C82.571419,366.368134 83.815971,367.586151 85.220184,367.812164 
	C89.189491,368.450989 93.224243,368.683228 97.233215,369.075623 
z"/>
<path fill="#B8A6BA" opacity="1.000000" stroke="none" 
	d="
M197.620667,209.643295 
	C197.748215,200.896866 198.133011,192.143188 197.887650,183.407242 
	C197.775986,179.432114 196.417938,175.492004 195.374100,171.290527 
	C196.925995,166.900085 198.729034,162.755157 200.810760,158.782166 
	C201.085190,173.657150 201.080948,188.360153 200.863129,203.325226 
	C199.639923,205.605957 198.630295,207.624634 197.620667,209.643295 
z"/>
<path fill="#483ABF" opacity="1.000000" stroke="none" 
	d="
M366.017212,238.109375 
	C367.432037,237.374725 368.842529,236.923248 370.454163,236.365723 
	C371.451050,236.401520 372.246796,236.543365 373.536377,237.027695 
	C374.030151,237.370193 374.129181,237.510986 374.129181,237.510986 
	C374.513336,237.582047 374.897522,237.653076 375.836792,237.826248 
	C376.391907,237.928375 376.348602,237.903931 376.348602,237.903931 
	C379.672150,240.821869 381.347473,244.238098 378.972321,248.904861 
	C375.638702,250.924255 373.748199,250.649200 370.709991,248.609741 
	C366.787048,245.976364 367.621460,242.097305 366.013458,238.958939 
	C366.013245,238.770126 366.013062,238.581329 366.017212,238.109375 
z"/>
<path fill="#ACBE9C" opacity="1.000000" stroke="none" 
	d="
M120.698616,307.911011 
	C114.213104,311.112640 107.456245,313.946747 100.843307,317.084167 
	C98.338020,318.272736 96.159233,320.152985 93.847435,321.740997 
	C93.593071,321.915741 93.488853,322.405518 93.238495,322.475525 
	C87.766953,324.005188 82.284554,325.496033 76.379135,326.984131 
	C79.511803,324.498260 82.774101,321.314362 86.684174,319.683136 
	C97.329651,315.242065 108.246330,311.450287 119.070549,307.441711 
	C119.460892,307.297180 120.009644,307.580383 120.698616,307.911011 
z"/>
<path fill="#392DAE" opacity="1.000000" stroke="none" 
	d="
M201.076706,203.063171 
	C201.080948,188.360153 201.085190,173.657150 201.000107,158.500763 
	C201.825790,157.513596 202.740799,156.979797 203.862747,156.743713 
	C203.979553,172.706696 203.889435,188.371979 203.441803,204.445953 
	C202.415115,204.257477 201.745911,203.660324 201.076706,203.063171 
z"/>
<path fill="#483ABF" opacity="1.000000" stroke="none" 
	d="
M34.925140,137.702515 
	C34.956665,138.450180 34.908924,138.791016 34.664787,139.525742 
	C34.313679,140.229584 34.158962,140.539536 34.004250,140.849503 
	C32.861343,142.097305 31.718437,143.345123 30.179340,144.333725 
	C28.825640,143.096161 27.868130,142.117798 27.072872,140.836792 
	C27.522961,139.408020 28.289391,137.430679 28.026985,137.283142 
	C23.959747,134.996231 24.996265,131.800552 26.931263,128.071091 
	C24.423674,128.550613 22.692202,128.881714 20.918480,129.206268 
	C20.876230,129.199722 20.808357,129.147705 20.808357,129.147705 
	C26.539089,126.143814 29.291550,126.852257 34.526672,132.916565 
	C34.741932,134.562958 34.793903,135.929337 34.925140,137.702515 
z"/>
<path fill="#58A25E" opacity="1.000000" stroke="none" 
	d="
M211.397354,136.796310 
	C211.663788,136.848862 211.930206,136.901398 212.598923,137.019470 
	C214.237457,137.719681 215.419174,138.743011 216.718903,138.925369 
	C224.590775,140.029861 232.489578,140.942352 241.172043,141.923828 
	C245.634933,142.933716 249.305176,143.938797 252.975418,144.943878 
	C252.478470,145.408798 251.981522,145.873718 251.313293,146.533966 
	C238.325516,144.757004 225.509033,142.784714 212.165497,140.490036 
	C211.638428,140.167664 211.513794,139.703888 211.575531,139.606140 
	C211.637253,139.508392 211.326019,139.212204 211.289185,138.788956 
	C211.192657,137.802505 211.132950,137.239304 211.151810,136.715897 
	C211.230362,136.755692 211.397354,136.796310 211.397354,136.796310 
z"/>
<path fill="#392DAE" opacity="1.000000" stroke="none" 
	d="
M40.994171,251.004608 
	C39.591755,252.013687 38.189342,253.022781 36.375870,253.654755 
	C32.980995,249.270538 29.997183,245.263443 27.013371,241.256332 
	C27.438477,240.500671 27.863581,239.745010 28.712463,238.645874 
	C29.360634,238.078232 29.618782,237.973801 29.910681,237.989136 
	C30.295918,237.783783 30.681154,237.578430 32.029449,237.263245 
	C33.740379,238.064102 34.645401,238.887558 35.207901,239.901108 
	C37.232975,243.550064 35.778870,249.005020 40.994171,251.004608 
z"/>
<path fill="#583663" opacity="1.000000" stroke="none" 
	d="
M26.910622,141.139435 
	C27.868130,142.117798 28.825640,143.096161 29.863789,144.354675 
	C25.147207,146.877487 21.250355,146.153000 18.450865,142.497925 
	C15.715838,138.927032 16.053888,134.473480 19.701481,130.134903 
	C20.023071,130.011230 20.045795,130.024170 20.059544,130.416473 
	C21.065649,135.103958 20.686964,140.306564 26.910622,141.139435 
z"/>
<path fill="#392DAE" opacity="1.000000" stroke="none" 
	d="
M194.849670,132.624847 
	C195.130539,132.152985 195.411407,131.681122 196.237640,131.079010 
	C197.198608,130.389328 197.614227,129.829926 198.029831,129.270508 
	C198.029831,129.270508 198.365479,128.969315 198.981384,128.939377 
	C204.933441,126.030243 206.853485,131.320175 210.138351,133.451569 
	C210.128082,133.581375 210.049911,133.829788 209.679443,133.727478 
	C205.388870,132.378342 203.035599,132.634308 204.634171,137.822037 
	C204.860474,138.556442 202.880249,139.970779 201.628601,140.909180 
	C199.173813,138.040237 197.011749,135.332550 194.849670,132.624847 
z"/>
<path fill="#483ABF" opacity="1.000000" stroke="none" 
	d="
M41.319458,250.890625 
	C35.778870,249.005020 37.232975,243.550064 35.207901,239.901108 
	C34.645401,238.887558 33.740379,238.064102 32.672474,237.139496 
	C33.147831,236.823227 33.943222,236.520905 35.107128,236.177979 
	C35.475643,236.137360 35.745682,236.163269 35.745682,236.163269 
	C35.745682,236.163269 36.010983,236.106598 36.010983,236.106598 
	C36.933167,236.203522 37.855347,236.300446 39.143864,236.550613 
	C40.066799,237.175659 40.623402,237.647446 41.180004,238.119232 
	C42.870686,242.281982 45.158924,246.422791 41.319458,250.890625 
z"/>
<path fill="#483ABF" opacity="1.000000" stroke="none" 
	d="
M201.921295,141.070404 
	C202.880249,139.970779 204.860474,138.556442 204.634171,137.822037 
	C203.035599,132.634308 205.388870,132.378342 209.737900,134.052246 
	C210.468964,135.211594 210.771118,135.943848 211.073257,136.676102 
	C211.132950,137.239304 211.192657,137.802505 211.253983,138.886627 
	C211.255615,139.407562 211.513794,139.703888 211.513794,139.703888 
	C211.513794,139.703888 211.638428,140.167664 211.712769,140.395706 
	C208.844223,144.071716 205.752075,147.195404 200.700500,145.414886 
	C201.192368,143.719955 201.556824,142.395172 201.921295,141.070404 
z"/>
<path fill="#583663" opacity="1.000000" stroke="none" 
	d="
M370.638000,140.987564 
	C370.310364,140.160767 370.249817,139.510620 370.182739,138.537613 
	C370.176178,138.214752 370.176636,138.120560 370.347229,137.966415 
	C370.571350,137.671112 370.700226,137.505142 370.663544,137.393692 
	C370.572906,137.118362 370.406311,136.868027 370.270264,136.607635 
	C370.270264,136.607635 370.423889,136.454910 370.443146,136.350769 
	C370.469727,135.532227 370.477081,134.817795 370.468658,133.750992 
	C370.866730,133.038132 371.280518,132.677658 371.948792,132.201950 
	C375.255646,136.461182 378.308075,140.835663 381.623230,145.385071 
	C376.902649,147.399750 373.791901,144.561798 370.638000,140.987564 
z"/>
<path fill="#583663" opacity="1.000000" stroke="none" 
	d="
M26.821411,241.557617 
	C29.997183,245.263443 32.980995,249.270538 36.024326,253.619507 
	C31.609613,255.696014 28.556524,253.706924 26.198206,250.101028 
	C24.357836,247.287048 23.675512,244.458115 26.821411,241.557617 
z"/>
<path fill="#583663" opacity="1.000000" stroke="none" 
	d="
M373.584229,253.997940 
	C369.930878,256.004944 366.772430,254.596375 364.309631,252.027222 
	C361.232147,248.816849 361.055450,244.951050 363.647583,241.315536 
	C364.397949,247.868607 368.856964,251.036926 373.584229,253.997940 
z"/>
<path fill="#C33011" opacity="1.000000" stroke="none" 
	d="
M187.647400,259.498199 
	C186.657562,259.425537 185.667709,259.352875 184.321533,259.169006 
	C183.965195,259.057800 183.999817,259.028961 184.070679,258.566559 
	C184.052277,254.069916 183.963028,250.035660 183.873749,246.001419 
	C183.891632,245.822586 183.909515,245.643753 183.946594,245.195709 
	C185.114838,244.735443 186.263885,244.544373 187.758392,244.901505 
	C187.951691,250.132538 187.799545,254.815369 187.647400,259.498199 
z"/>
<path fill="#392DAE" opacity="1.000000" stroke="none" 
	d="
M373.962463,253.975510 
	C368.856964,251.036926 364.397949,247.868607 363.957214,241.159790 
	C363.919006,240.385910 363.906769,240.026962 363.961243,239.406250 
	C364.467590,239.083023 364.907196,239.021591 365.680145,238.959534 
	C367.621460,242.097305 366.787048,245.976364 370.709991,248.609741 
	C373.748199,250.649200 375.638702,250.924255 378.691193,249.073975 
	C377.477600,250.667557 375.909119,252.310318 373.962463,253.975510 
z"/>
<path fill="#51A053" opacity="1.000000" stroke="none" 
	d="
M171.371841,142.950119 
	C170.975586,142.510880 170.962540,142.077499 170.923859,141.319733 
	C178.217102,139.964340 185.536011,138.933350 193.395523,138.254364 
	C194.009827,139.349365 194.083496,140.092346 194.157181,140.835342 
	C189.047256,141.169464 183.937317,141.503601 178.305023,141.677765 
	C177.430206,141.377121 177.169647,141.488678 177.000946,141.852448 
	C175.252319,142.220291 173.503677,142.588135 171.371841,142.950119 
z"/>
<path fill="#55CC8A" opacity="1.000000" stroke="none" 
	d="
M41.535233,237.960541 
	C40.623402,237.647446 40.066799,237.175659 39.466492,236.411041 
	C41.854244,232.641647 44.285702,229.165070 46.867546,225.374817 
	C49.362923,222.074158 51.707916,219.087204 54.371922,216.032028 
	C53.244423,218.662857 51.892399,221.417969 50.330574,224.048523 
	C47.584831,228.673126 44.710777,233.221542 41.535233,237.960541 
z"/>
<path fill="#583663" opacity="1.000000" stroke="none" 
	d="
M194.368134,141.093201 
	C194.083496,140.092346 194.009827,139.349365 193.843628,138.242783 
	C193.886414,136.534714 194.021698,135.190216 194.097183,133.441193 
	C194.037369,133.036652 194.391037,132.732086 194.620361,132.678467 
	C197.011749,135.332550 199.173813,138.040237 201.628601,140.909180 
	C201.556824,142.395172 201.192368,143.719955 200.508759,145.201706 
	C198.319458,144.022812 196.449280,142.686935 194.368134,141.093201 
z"/>
<path fill="#483ABF" opacity="1.000000" stroke="none" 
	d="
M210.148621,133.321762 
	C206.853485,131.320175 204.933441,126.030243 199.205444,128.914108 
	C204.033966,126.393906 206.772522,127.261597 210.286652,132.927246 
	C210.179932,133.266754 210.148621,133.321762 210.148621,133.321762 
z"/>
<path fill="#55CC8A" opacity="1.000000" stroke="none" 
	d="
M55.372864,214.976807 
	C57.129276,212.436890 59.194191,209.762878 61.598309,207.054871 
	C59.852131,209.628143 57.766747,212.235443 55.372864,214.976807 
z"/>
<path fill="#B4B695" opacity="1.000000" stroke="none" 
	d="
M183.605530,246.146667 
	C183.963028,250.035660 184.052277,254.069916 184.049896,258.561035 
	C183.494980,258.086975 182.622726,257.147461 182.641937,256.226593 
	C182.711105,252.911652 183.081024,249.602966 183.605530,246.146667 
z"/>
<path fill="#D47859" opacity="1.000000" stroke="none" 
	d="
M405.737549,410.876160 
	C407.096954,410.146667 408.252930,409.584015 409.736389,409.045105 
	C408.517059,410.225647 406.970215,411.382477 405.095642,412.441620 
	C405.023315,411.910278 405.278717,411.476624 405.737549,410.876160 
z"/>
<path fill="#7CD8A9" opacity="1.000000" stroke="none" 
	d="
M346.712280,200.801254 
	C345.469299,200.006119 344.240173,198.872177 342.984589,197.405975 
	C344.214111,198.203278 345.470123,199.332855 346.712280,200.801254 
z"/>
<path fill="#D47859" opacity="1.000000" stroke="none" 
	d="
M398.558655,409.079041 
	C399.457916,409.756287 400.362793,410.738220 401.271637,412.019653 
	C400.371826,411.340729 399.468018,410.362213 398.558655,409.079041 
z"/>
<path fill="#CF4926" opacity="1.000000" stroke="none" 
	d="
M345.443268,383.422577 
	C346.046265,384.445953 346.545593,385.804474 347.024536,387.481750 
	C346.449310,386.452881 345.894470,385.105316 345.443268,383.422577 
z"/>
<path fill="#583663" opacity="1.000000" stroke="none" 
	d="
M210.138351,133.451569 
	C210.148621,133.321762 210.179932,133.266754 210.207275,133.252014 
	C210.463531,133.266296 210.692444,133.295319 211.255371,133.406204 
	C211.566101,134.376648 211.542801,135.265244 211.458435,136.475067 
	C211.397354,136.796310 211.230362,136.755692 211.151810,136.715897 
	C210.771118,135.943848 210.468964,135.211594 210.108368,134.154572 
	C210.049911,133.829788 210.128082,133.581375 210.138351,133.451569 
z"/>
<path fill="#CF4926" opacity="1.000000" stroke="none" 
	d="
M343.787964,374.493591 
	C344.245178,375.377655 344.596344,376.566681 344.866882,378.079285 
	C344.418121,377.201385 344.050018,375.999969 343.787964,374.493591 
z"/>
<path fill="#D3CCD5" opacity="1.000000" stroke="none" 
	d="
M227.311264,228.893738 
	C227.461105,228.075684 227.889023,227.098358 228.659988,226.059204 
	C228.531799,226.909744 228.060577,227.822098 227.311264,228.893738 
z"/>
<path fill="#483ABF" opacity="1.000000" stroke="none" 
	d="
M197.753937,129.295563 
	C197.614227,129.829926 197.198608,130.389328 196.505798,130.984009 
	C196.645081,130.453033 197.061554,129.886826 197.753937,129.295563 
z"/>
<path fill="#B4B695" opacity="1.000000" stroke="none" 
	d="
M69.103653,339.218140 
	C69.313950,339.715759 69.225090,340.377869 68.929459,341.152557 
	C68.749962,340.637634 68.777229,340.010101 69.103653,339.218140 
z"/>
<path fill="#CF4926" opacity="1.000000" stroke="none" 
	d="
M341.989227,365.211121 
	C342.312378,365.509521 342.527161,366.049866 342.593628,366.723145 
	C342.257172,366.388397 342.069000,365.920715 341.989227,365.211121 
z"/>
<path fill="#D47859" opacity="1.000000" stroke="none" 
	d="
M330.851562,309.176880 
	C331.235260,309.546936 331.458496,310.084076 331.495087,310.787201 
	C331.102661,310.416809 330.896881,309.880371 330.851562,309.176880 
z"/>
<path fill="#55CC8A" opacity="1.000000" stroke="none" 
	d="
M62.551727,206.323730 
	C62.674950,205.707504 63.076439,204.941742 63.844059,204.156036 
	C63.750130,204.815460 63.290066,205.494843 62.551727,206.323730 
z"/>
<path fill="#7CD8A9" opacity="1.000000" stroke="none" 
	d="
M354.652039,210.821777 
	C354.065063,210.679276 353.524567,210.226212 352.937622,209.494568 
	C353.493652,209.647720 354.096069,210.079468 354.652039,210.821777 
z"/>
<path fill="#D3CCD5" opacity="1.000000" stroke="none" 
	d="
M229.390320,225.047546 
	C229.494049,224.452454 229.904938,223.774994 230.634155,223.038879 
	C230.534164,223.641891 230.115829,224.303528 229.390320,225.047546 
z"/>
<path fill="#583663" opacity="1.000000" stroke="none" 
	d="
M29.817490,237.934082 
	C29.618782,237.973801 29.360634,238.078232 29.086433,238.371277 
	C29.265850,238.253113 29.495073,238.066071 29.817490,237.934082 
z"/>
<path fill="#D47859" opacity="1.000000" stroke="none" 
	d="
M331.742218,313.289368 
	C332.019958,313.716492 332.186462,314.413055 332.286377,315.375732 
	C332.023499,314.947510 331.827240,314.253143 331.742218,313.289368 
z"/>
<path fill="#55CC8A" opacity="1.000000" stroke="none" 
	d="
M36.011040,235.835587 
	C36.010983,236.106598 35.745682,236.163269 35.745682,236.163269 
	C35.745682,236.163269 35.475643,236.137360 35.363667,236.062164 
	C35.371723,235.424255 35.491760,234.861572 35.843731,234.155121 
	C36.054142,234.529114 36.032619,235.046844 36.011040,235.835587 
z"/>
<path fill="#D47859" opacity="1.000000" stroke="none" 
	d="
M397.181702,407.196106 
	C397.551147,407.258240 397.915161,407.582214 398.277588,408.166260 
	C397.909454,408.103546 397.542847,407.780762 397.181702,407.196106 
z"/>
<path fill="#583663" opacity="1.000000" stroke="none" 
	d="
M20.637899,129.134186 
	C20.808357,129.147705 20.876230,129.199722 20.786263,129.359375 
	C20.498568,129.711990 20.281733,129.880371 20.045795,130.024170 
	C20.045795,130.024170 20.023071,130.011230 20.013636,130.002075 
	C20.158615,129.702179 20.313028,129.411423 20.637899,129.134186 
z"/>
<path fill="#D47859" opacity="1.000000" stroke="none" 
	d="
M393.085205,361.277100 
	C393.117218,360.935272 393.398682,360.557983 393.922821,360.145386 
	C393.888550,360.487305 393.611633,360.864471 393.085205,361.277100 
z"/>
<path fill="#D47859" opacity="1.000000" stroke="none" 
	d="
M400.433777,354.200043 
	C400.469086,353.824371 400.763763,353.392517 401.330597,352.910095 
	C401.299500,353.287628 400.996307,353.715729 400.433777,354.200043 
z"/>
<path fill="#55CC8A" opacity="1.000000" stroke="none" 
	d="
M374.237457,237.439682 
	C374.129181,237.510986 374.030151,237.370193 374.047302,237.344849 
	C374.064423,237.319519 374.231262,237.090637 374.231262,237.090637 
	C374.231262,237.090637 374.345734,237.368378 374.237457,237.439682 
z"/>
<path fill="#5EAD74" opacity="1.000000" stroke="none" 
	d="
M34.311798,140.818420 
	C34.158962,140.539536 34.313679,140.229584 34.700188,139.783661 
	C34.931988,139.647690 35.098846,140.037735 35.120914,140.248215 
	C34.968433,140.568237 34.793888,140.677795 34.311798,140.818420 
z"/>
<path fill="#CF4926" opacity="1.000000" stroke="none" 
	d="
M343.039001,370.276733 
	C343.488464,370.153748 343.621796,370.400024 343.365082,370.867401 
	C343.147888,370.819427 343.063843,370.671906 343.039001,370.276733 
z"/>
<path fill="#5EAD74" opacity="1.000000" stroke="none" 
	d="
M177.253662,141.892166 
	C177.169647,141.488678 177.430206,141.377121 177.887665,141.645325 
	C177.830597,141.825867 177.668488,141.878876 177.253662,141.892166 
z"/>
<path fill="#CF4926" opacity="1.000000" stroke="none" 
	d="
M376.798157,380.252899 
	C376.882538,380.172821 377.063660,380.376007 377.067261,380.445435 
	C377.070892,380.514862 376.713776,380.332977 376.798157,380.252899 
z"/>
<path fill="#5EAD74" opacity="1.000000" stroke="none" 
	d="
M88.716354,171.864243 
	C88.684509,171.879761 88.747047,171.800842 88.770386,171.789474 
	C88.793732,171.778107 88.748207,171.848724 88.716354,171.864243 
z"/>
<path fill="#D47859" opacity="1.000000" stroke="none" 
	d="
M393.945831,403.085083 
	C394.057312,403.097809 394.027527,403.072479 394.030884,403.047760 
	C394.034241,403.023041 393.834351,403.072327 393.945831,403.085083 
z"/>
<path fill="#D47859" opacity="1.000000" stroke="none" 
	d="
M395.848816,405.405518 
	C396.117432,405.345062 396.403809,405.554230 396.682953,406.043335 
	C396.406006,406.107239 396.136261,405.891174 395.848816,405.405518 
z"/>
<path fill="#55CC8A" opacity="1.000000" stroke="none" 
	d="
M376.369568,237.837631 
	C376.348602,237.903931 376.391907,237.928375 376.415680,237.917480 
	C376.439453,237.906586 376.390503,237.771332 376.369568,237.837631 
z"/>
<path fill="#483ABF" opacity="1.000000" stroke="none" 
	d="
M200.863129,203.325226 
	C201.745911,203.660324 202.415115,204.257477 203.355347,204.903580 
	C205.673508,207.745804 208.576981,210.398697 204.594330,214.415421 
	C201.189575,216.222214 198.987595,215.243912 197.169922,212.856812 
	C197.271408,211.992691 197.372894,211.128571 197.547516,209.953873 
	C198.630295,207.624634 199.639923,205.605957 200.863129,203.325226 
z"/>
<path fill="#B8A6BA" opacity="1.000000" stroke="none" 
	d="
M196.790222,212.936676 
	C198.987595,215.243912 201.189575,216.222214 204.406052,214.700348 
	C204.802231,215.176315 204.855850,215.689148 204.894287,216.587936 
	C203.434158,217.970276 202.096054,219.507416 200.515930,219.819595 
	C198.733719,220.171692 195.985596,220.098877 194.992538,219.002121 
	C193.216995,217.041138 193.269485,214.387161 196.790222,212.936676 
z"/>
<path fill="#286613" opacity="1.000000" stroke="none" 
	d="
M150.699310,313.806641 
	C153.465714,318.659943 156.695160,323.171021 158.150269,328.195892 
	C160.065002,334.807892 157.640503,340.860138 152.303436,345.383209 
	C152.366196,339.793091 151.530075,334.978302 147.334244,331.140411 
	C144.706085,328.736450 142.622345,325.709534 139.885391,323.459534 
	C136.614624,320.770630 133.190216,317.697784 128.274780,320.067230 
	C127.675186,320.356262 126.791016,320.067017 126.039696,320.027191 
	C123.001343,319.866241 119.951637,319.457703 116.928848,319.605438 
	C114.320732,319.732941 111.544853,321.343567 109.192810,320.796143 
	C103.908325,319.566223 103.228706,322.495056 102.549370,326.270386 
	C100.480942,325.786285 98.785225,325.370605 97.089508,324.954956 
	C96.507469,324.050293 95.925430,323.145660 95.236938,322.075531 
	C106.869682,317.754395 118.165451,313.072113 129.785095,309.420441 
	C137.014923,307.148376 144.241455,308.733154 150.699310,313.806641 
z"/>
<path fill="#35A045" opacity="1.000000" stroke="none" 
	d="
M143.947327,350.340088 
	C131.233658,355.314514 118.519989,360.288940 105.411903,364.928894 
	C105.001228,364.042816 104.984962,363.491241 104.968689,362.939667 
	C107.573074,358.508698 110.177460,354.077759 112.867310,348.863983 
	C112.665039,345.707184 112.377304,343.333191 112.089569,340.959198 
	C112.089569,340.959198 112.165466,340.971008 112.260376,340.558746 
	C111.885834,338.443909 111.416389,336.741302 111.219292,334.798889 
	C113.001305,333.388153 115.045586,330.902771 115.932358,331.263428 
	C121.024849,333.334656 125.955322,335.887451 130.718262,338.659241 
	C134.500214,340.860168 138.072311,343.471344 141.507523,346.190948 
	C142.680527,347.119598 143.154144,348.931671 143.947327,350.340088 
z"/>
<path fill="#ACBE9C" opacity="1.000000" stroke="none" 
	d="
M110.946945,335.038727 
	C111.416389,336.741302 111.885834,338.443909 112.272980,340.522461 
	C111.249786,339.398346 110.297470,337.905304 109.369987,336.396973 
	C105.339424,329.842194 99.596100,326.312805 91.545815,326.844269 
	C91.566284,326.404419 91.586761,325.964569 91.607231,325.524719 
	C93.158180,325.344727 94.709129,325.164703 96.674789,324.969818 
	C98.785225,325.370605 100.480942,325.786285 102.708488,326.535767 
	C104.443413,327.688171 105.646515,328.506744 106.956161,329.624878 
	C108.357460,331.629181 109.652199,333.333954 110.946945,335.038727 
z"/>
<path fill="#51A053" opacity="1.000000" stroke="none" 
	d="
M104.612083,363.006317 
	C104.984962,363.491241 105.001228,364.042816 105.039406,365.011383 
	C102.673615,366.604034 100.285904,367.779694 97.565704,369.015503 
	C93.224243,368.683228 89.189491,368.450989 85.220184,367.812164 
	C83.815971,367.586151 82.571419,366.368134 81.240921,365.235565 
	C89.273758,369.016174 96.857430,367.235199 104.612083,363.006317 
z"/>
<path fill="#ACBE9C" opacity="1.000000" stroke="none" 
	d="
M112.063438,341.383636 
	C112.377304,343.333191 112.665039,345.707184 112.853012,348.493683 
	C112.514595,346.540161 112.275948,344.174103 112.063438,341.383636 
z"/>
<path fill="#D7623B" opacity="1.000000" stroke="none" 
	d="
M394.970947,344.623352 
	C391.939911,347.492157 388.981384,350.171204 385.741547,352.450226 
	C383.241394,354.208954 380.388275,355.465851 377.339325,357.005554 
	C370.180450,349.407379 363.315704,341.800629 356.585388,334.076721 
	C350.400208,326.978455 344.359802,319.754059 338.122406,312.267639 
	C342.552124,313.690796 347.322021,315.032349 351.629639,317.265533 
	C358.139984,320.640594 364.388428,324.539734 370.633820,328.401123 
	C375.466797,331.389221 380.111847,334.680023 384.864716,337.799286 
	C388.196045,339.985596 391.568329,342.109558 394.970947,344.623352 
z"/>
<path fill="#55CC8A" opacity="1.000000" stroke="none" 
	d="
M253.386993,144.946411 
	C249.305176,143.938797 245.634933,142.933716 241.585358,141.895081 
	C242.486130,141.250809 243.814911,140.041763 245.037247,140.141205 
	C248.757767,140.443878 252.437195,141.251511 256.521240,141.922089 
	C259.594788,143.704956 262.279755,145.428299 265.058289,147.461731 
	C261.367462,146.830856 257.583008,145.889893 253.386993,144.946411 
z"/>
<path fill="#55CC8A" opacity="1.000000" stroke="none" 
	d="
M270.947632,149.421509 
	C273.204407,150.110703 275.569244,151.130554 278.045227,152.473221 
	C275.789459,151.781418 273.422577,150.766785 270.947632,149.421509 
z"/>
<path fill="#49C075" opacity="1.000000" stroke="none" 
	d="
M308.985535,170.438995 
	C309.958313,170.801117 310.995209,171.499588 312.144043,172.515762 
	C311.187195,172.147415 310.118439,171.461365 308.985535,170.438995 
z"/>
<path fill="#55CC8A" opacity="1.000000" stroke="none" 
	d="
M280.015076,153.362167 
	C280.920593,153.429184 281.915527,153.833527 283.006836,154.570129 
	C282.103607,154.501419 281.104065,154.100449 280.015076,153.362167 
z"/>
<path fill="#49C075" opacity="1.000000" stroke="none" 
	d="
M318.039429,177.310883 
	C318.886719,177.469009 319.798798,177.967514 320.827026,178.773666 
	C319.996857,178.604645 319.050537,178.127960 318.039429,177.310883 
z"/>
<path fill="#49C075" opacity="1.000000" stroke="none" 
	d="
M297.006470,162.398132 
	C297.861572,162.518814 298.788269,162.974258 299.853210,163.724823 
	C299.020325,163.590912 298.049194,163.161880 297.006470,162.398132 
z"/>
<path fill="#55CC8A" opacity="1.000000" stroke="none" 
	d="
M267.160156,148.120026 
	C267.660248,148.000015 268.335236,148.151703 269.079224,148.571121 
	C268.543823,148.689804 267.939423,148.540756 267.160156,148.120026 
z"/>
<path fill="#49C075" opacity="1.000000" stroke="none" 
	d="
M289.978638,158.447403 
	C290.592438,158.517609 291.289856,158.902130 292.085876,159.598068 
	C291.477051,159.526901 290.769684,159.144302 289.978638,158.447403 
z"/>
<path fill="#49C075" opacity="1.000000" stroke="none" 
	d="
M292.980896,160.298859 
	C293.517761,160.213638 294.100189,160.408310 294.845398,160.876923 
	C294.347626,160.960159 293.687042,160.769455 292.980896,160.298859 
z"/>
<path fill="#49C075" opacity="1.000000" stroke="none" 
	d="
M304.978149,167.403870 
	C305.580780,167.506195 306.259979,167.922211 307.011780,168.658813 
	C306.407867,168.558792 305.731293,168.138184 304.978149,167.403870 
z"/>
<path fill="#49C075" opacity="1.000000" stroke="none" 
	d="
M323.024017,181.301270 
	C323.628784,181.446060 324.279388,181.915451 324.983643,182.707428 
	C324.381470,182.561981 323.725647,182.093933 323.024017,181.301270 
z"/>
<path fill="#49C075" opacity="1.000000" stroke="none" 
	d="
M332.051392,189.284698 
	C332.279938,189.149582 332.538605,189.330811 332.809204,189.842041 
	C332.589783,189.952515 332.343231,189.762177 332.051392,189.284698 
z"/>
<path fill="#2B8A31" opacity="1.000000" stroke="none" 
	d="
M106.849609,329.325317 
	C105.646515,328.506744 104.443413,327.688171 103.081192,326.604248 
	C103.228706,322.495056 103.908325,319.566223 109.192810,320.796143 
	C111.544853,321.343567 114.320732,319.732941 116.928848,319.605438 
	C119.951637,319.457703 123.001343,319.866241 126.039696,320.027191 
	C126.791016,320.067017 127.675186,320.356262 128.274780,320.067230 
	C133.190216,317.697784 136.614624,320.770630 139.885391,323.459534 
	C142.622345,325.709534 144.706085,328.736450 147.334244,331.140411 
	C151.530075,334.978302 152.366196,339.793091 151.993744,345.523071 
	C151.981674,345.965851 151.989349,345.996704 151.703308,346.053589 
	C150.976669,346.623627 150.536087,347.136719 150.095490,347.649811 
	C149.964005,347.767426 149.832535,347.885040 149.149170,347.856140 
	C147.368973,345.297089 146.390579,342.712250 144.867340,340.503052 
	C139.427521,332.613861 132.549927,326.450073 122.449059,326.252655 
	C117.201035,326.150024 111.068176,323.498688 106.849609,329.325317 
z"/>
<path fill="#30953B" opacity="1.000000" stroke="none" 
	d="
M106.956161,329.624878 
	C111.068176,323.498688 117.201035,326.150024 122.449059,326.252655 
	C132.549927,326.450073 139.427521,332.613861 144.867340,340.503052 
	C146.390579,342.712250 147.368973,345.297089 148.896027,347.933167 
	C147.698608,348.887787 146.202484,349.618805 144.326843,350.344971 
	C143.154144,348.931671 142.680527,347.119598 141.507523,346.190948 
	C138.072311,343.471344 134.500214,340.860168 130.718262,338.659241 
	C125.955322,335.887451 121.024849,333.334656 115.932358,331.263428 
	C115.045586,330.902771 113.001305,333.388153 111.219284,334.798889 
	C109.652199,333.333954 108.357460,331.629181 106.956161,329.624878 
z"/>
<path fill="#286613" opacity="1.000000" stroke="none" 
	d="
M150.349030,347.594482 
	C150.536087,347.136719 150.976669,346.623627 151.691574,346.046387 
	C151.511444,346.501251 151.057007,347.020233 150.349030,347.594482 
z"/>
<path fill="#58A25E" opacity="1.000000" stroke="none" 
	d="
M370.208374,136.962219 
	C370.406311,136.868027 370.572906,137.118362 370.663544,137.393692 
	C370.700226,137.505142 370.571350,137.671112 370.325928,137.924408 
	C370.138184,137.796631 370.142334,137.556702 370.208374,136.962219 
z"/>
<path fill="#D7623B" opacity="1.000000" stroke="none" 
	d="
M390.024841,373.611084 
	C389.339142,372.564636 388.659210,371.150330 387.960938,369.365540 
	C388.128784,368.999359 388.314941,369.003571 388.780304,369.030457 
	C389.383179,370.449799 389.706879,371.846527 390.024841,373.611084 
z"/>
<path fill="#CF4926" opacity="1.000000" stroke="none" 
	d="
M188.029053,259.697601 
	C187.799545,254.815369 187.951691,250.132538 188.190933,244.980042 
	C188.278030,244.510391 188.446945,244.521362 188.787415,244.601776 
	C189.415237,244.476685 189.702576,244.271194 189.989899,244.065704 
	C196.834656,244.095825 203.679428,244.125931 210.828125,244.778961 
	C210.637039,246.954376 210.234009,248.543701 209.629913,250.052521 
	C207.764832,254.710754 208.839828,257.933685 213.054337,260.036072 
	C204.839798,259.989716 196.625244,259.943359 188.029053,259.697601 
z"/>
<path fill="#D7623B" opacity="1.000000" stroke="none" 
	d="
M213.465881,260.086975 
	C208.839828,257.933685 207.764832,254.710754 209.629913,250.052521 
	C210.234009,248.543701 210.637039,246.954376 211.223175,244.953033 
	C212.636414,244.559311 213.965790,244.729858 215.279297,244.647491 
	C218.927536,244.418747 220.458618,246.095749 220.159683,249.682907 
	C220.050186,250.996964 220.053833,252.335831 220.164398,253.650040 
	C220.551559,258.251984 218.681808,260.599579 213.465881,260.086975 
z"/>
<path fill="#D7623B" opacity="1.000000" stroke="none" 
	d="
M189.723602,244.063614 
	C189.702576,244.271194 189.415237,244.476685 188.853882,244.654175 
	C188.872330,244.437973 189.164825,244.249756 189.723602,244.063614 
z"/>
<path fill="#D7623B" opacity="1.000000" stroke="none" 
	d="
M410.015381,401.612854 
	C408.641388,401.278992 406.866913,400.891449 405.984009,399.789551 
	C401.103546,393.698364 396.342621,387.503662 391.775726,381.174835 
	C390.717316,379.708008 390.575348,377.579895 390.039520,375.350647 
	C391.378082,375.896759 393.036896,376.597778 393.935242,377.846069 
	C396.796082,381.821564 399.313782,386.041748 402.078857,390.088989 
	C404.651642,393.854675 407.371460,397.519897 410.015381,401.612854 
z"/>
<path fill="#CF4926" opacity="1.000000" stroke="none" 
	d="
M413.218750,404.034729 
	C413.390533,403.922150 413.563263,403.976135 413.735992,404.030090 
	C413.563904,404.087158 413.391815,404.144196 413.218750,404.034729 
z"/>
<path fill="#392DAE" opacity="1.000000" stroke="none" 
	d="
M20.059544,130.416473 
	C20.281733,129.880371 20.498568,129.711990 20.828514,129.365921 
	C22.692202,128.881714 24.423674,128.550613 26.931263,128.071091 
	C24.996265,131.800552 23.959747,134.996231 28.026985,137.283142 
	C28.289391,137.430679 27.522961,139.408020 27.072874,140.836792 
	C20.686964,140.306564 21.065649,135.103958 20.059544,130.416473 
z"/>
<path fill="#583663" opacity="1.000000" stroke="none" 
	d="
M211.575531,139.606140 
	C211.513794,139.703888 211.255615,139.407562 211.290817,139.309875 
	C211.326019,139.212204 211.637253,139.508392 211.575531,139.606140 
z"/>
</svg>